# Blender 4.0.2
# www.blender.org
mtllib prozori.mtl
o Window
v 0.068212 0.068871 0.119428
v 0.068212 0.157047 0.119428
v 0.107702 0.068871 0.119428
v 0.107702 0.157047 0.119428
v 0.068212 0.068871 0.033005
v 0.068212 0.157047 0.033005
v 0.107702 0.068871 0.033005
v 0.107702 0.157047 0.033005
vn -0.0000 -0.0000 1.0000
vn 1.0000 -0.0000 -0.0000
vn -0.0000 -0.0000 -1.0000
vn -1.0000 -0.0000 -0.0000
vn -0.0000 -1.0000 -0.0000
vn -0.0000 1.0000 -0.0000
vt 0.375000 0.000000
vt 0.625000 0.000000
vt 0.625000 0.250000
vt 0.375000 0.250000
vt 0.625000 0.500000
vt 0.375000 0.500000
vt 0.625000 0.750000
vt 0.375000 0.750000
vt 0.625000 1.000000
vt 0.375000 1.000000
vt 0.125000 0.500000
vt 0.125000 0.750000
vt 0.875000 0.500000
vt 0.875000 0.750000
s 0
usemtl Material.007
f 1/1/1 3/4/1 4/3/1 2/2/1
f 3/4/2 7/6/2 8/5/2 4/3/2
f 7/6/3 5/8/3 6/7/3 8/5/3
f 5/8/4 1/10/4 2/9/4 6/7/4
f 3/11/5 1/12/5 5/8/5 7/6/5
f 8/5/6 6/7/6 2/14/6 4/13/6
o Window.001
v 0.068212 0.069329 -0.037693
v 0.068212 0.157505 -0.037693
v 0.107702 0.069329 -0.037693
v 0.107702 0.157505 -0.037693
v 0.068212 0.069329 -0.124116
v 0.068212 0.157505 -0.124116
v 0.107702 0.069329 -0.124116
v 0.107702 0.157505 -0.124116
vn -0.0000 -0.0000 1.0000
vn 1.0000 -0.0000 -0.0000
vn -0.0000 -0.0000 -1.0000
vn -1.0000 -0.0000 -0.0000
vn -0.0000 -1.0000 -0.0000
vn -0.0000 1.0000 -0.0000
vt 0.375000 0.000000
vt 0.625000 0.000000
vt 0.625000 0.250000
vt 0.375000 0.250000
vt 0.625000 0.500000
vt 0.375000 0.500000
vt 0.625000 0.750000
vt 0.375000 0.750000
vt 0.625000 1.000000
vt 0.375000 1.000000
vt 0.125000 0.500000
vt 0.125000 0.750000
vt 0.875000 0.500000
vt 0.875000 0.750000
s 0
usemtl Material.007
f 9/15/7 11/18/7 12/17/7 10/16/7
f 11/18/8 15/20/8 16/19/8 12/17/8
f 15/20/9 13/22/9 14/21/9 16/19/9
f 13/22/10 9/24/10 10/23/10 14/21/10
f 11/25/11 9/26/11 13/22/11 15/20/11
f 16/19/12 14/21/12 10/28/12 12/27/12
o Window.002
v 0.068212 0.258515 -0.036777
v 0.068212 0.346692 -0.036777
v 0.107702 0.258515 -0.036777
v 0.107702 0.346692 -0.036777
v 0.068212 0.258515 -0.123200
v 0.068212 0.346692 -0.123200
v 0.107702 0.258515 -0.123200
v 0.107702 0.346692 -0.123200
vn -0.0000 -0.0000 1.0000
vn 1.0000 -0.0000 -0.0000
vn -0.0000 -0.0000 -1.0000
vn -1.0000 -0.0000 -0.0000
vn -0.0000 -1.0000 -0.0000
vn -0.0000 1.0000 -0.0000
vt 0.375000 0.000000
vt 0.625000 0.000000
vt 0.625000 0.250000
vt 0.375000 0.250000
vt 0.625000 0.500000
vt 0.375000 0.500000
vt 0.625000 0.750000
vt 0.375000 0.750000
vt 0.625000 1.000000
vt 0.375000 1.000000
vt 0.125000 0.500000
vt 0.125000 0.750000
vt 0.875000 0.500000
vt 0.875000 0.750000
s 0
usemtl Material.007
f 17/29/13 19/32/13 20/31/13 18/30/13
f 19/32/14 23/34/14 24/33/14 20/31/14
f 23/34/15 21/36/15 22/35/15 24/33/15
f 21/36/16 17/38/16 18/37/16 22/35/16
f 19/39/17 17/40/17 21/36/17 23/34/17
f 24/33/18 22/35/18 18/42/18 20/41/18
o Window.003
v 0.068212 0.258973 0.120802
v 0.068212 0.347150 0.120802
v 0.107702 0.258973 0.120802
v 0.107702 0.347150 0.120802
v 0.068212 0.258973 0.034379
v 0.068212 0.347150 0.034379
v 0.107702 0.258973 0.034379
v 0.107702 0.347150 0.034379
vn -0.0000 -0.0000 1.0000
vn 1.0000 -0.0000 -0.0000
vn -0.0000 -0.0000 -1.0000
vn -1.0000 -0.0000 -0.0000
vn -0.0000 -1.0000 -0.0000
vn -0.0000 1.0000 -0.0000
vt 0.375000 0.000000
vt 0.625000 0.000000
vt 0.625000 0.250000
vt 0.375000 0.250000
vt 0.625000 0.500000
vt 0.375000 0.500000
vt 0.625000 0.750000
vt 0.375000 0.750000
vt 0.625000 1.000000
vt 0.375000 1.000000
vt 0.125000 0.500000
vt 0.125000 0.750000
vt 0.875000 0.500000
vt 0.875000 0.750000
s 0
usemtl Material.007
f 25/43/19 27/46/19 28/45/19 26/44/19
f 27/46/20 31/48/20 32/47/20 28/45/20
f 31/48/21 29/50/21 30/49/21 32/47/21
f 29/50/22 25/52/22 26/51/22 30/49/22
f 27/53/23 25/54/23 29/50/23 31/48/23
f 32/47/24 30/49/24 26/56/24 28/55/24
o Window.004
v -0.128222 0.068871 0.119428
v -0.128222 0.157047 0.119428
v -0.088732 0.068871 0.119428
v -0.088732 0.157047 0.119428
v -0.128222 0.068871 0.033005
v -0.128222 0.157047 0.033005
v -0.088732 0.068871 0.033005
v -0.088732 0.157047 0.033005
vn -0.0000 -0.0000 1.0000
vn 1.0000 -0.0000 -0.0000
vn -0.0000 -0.0000 -1.0000
vn -1.0000 -0.0000 -0.0000
vn -0.0000 -1.0000 -0.0000
vn -0.0000 1.0000 -0.0000
vt 0.375000 0.000000
vt 0.625000 0.000000
vt 0.625000 0.250000
vt 0.375000 0.250000
vt 0.625000 0.500000
vt 0.375000 0.500000
vt 0.625000 0.750000
vt 0.375000 0.750000
vt 0.625000 1.000000
vt 0.375000 1.000000
vt 0.125000 0.500000
vt 0.125000 0.750000
vt 0.875000 0.500000
vt 0.875000 0.750000
s 0
usemtl Material.007
f 33/57/25 35/60/25 36/59/25 34/58/25
f 35/60/26 39/62/26 40/61/26 36/59/26
f 39/62/27 37/64/27 38/63/27 40/61/27
f 37/64/28 33/66/28 34/65/28 38/63/28
f 35/67/29 33/68/29 37/64/29 39/62/29
f 40/61/30 38/63/30 34/70/30 36/69/30
o Window.005
v -0.128222 0.069329 -0.037693
v -0.128222 0.157505 -0.037693
v -0.088732 0.069329 -0.037693
v -0.088732 0.157505 -0.037693
v -0.128222 0.069329 -0.124116
v -0.128222 0.157505 -0.124116
v -0.088732 0.069329 -0.124116
v -0.088732 0.157505 -0.124116
vn -0.0000 -0.0000 1.0000
vn 1.0000 -0.0000 -0.0000
vn -0.0000 -0.0000 -1.0000
vn -1.0000 -0.0000 -0.0000
vn -0.0000 -1.0000 -0.0000
vn -0.0000 1.0000 -0.0000
vt 0.375000 0.000000
vt 0.625000 0.000000
vt 0.625000 0.250000
vt 0.375000 0.250000
vt 0.625000 0.500000
vt 0.375000 0.500000
vt 0.625000 0.750000
vt 0.375000 0.750000
vt 0.625000 1.000000
vt 0.375000 1.000000
vt 0.125000 0.500000
vt 0.125000 0.750000
vt 0.875000 0.500000
vt 0.875000 0.750000
s 0
usemtl Material.007
f 41/71/31 43/74/31 44/73/31 42/72/31
f 43/74/32 47/76/32 48/75/32 44/73/32
f 47/76/33 45/78/33 46/77/33 48/75/33
f 45/78/34 41/80/34 42/79/34 46/77/34
f 43/81/35 41/82/35 45/78/35 47/76/35
f 48/75/36 46/77/36 42/84/36 44/83/36
o Window.006
v -0.128222 0.258515 -0.036777
v -0.128222 0.346692 -0.036777
v -0.088732 0.258515 -0.036777
v -0.088732 0.346692 -0.036777
v -0.128222 0.258515 -0.123200
v -0.128222 0.346692 -0.123200
v -0.088732 0.258515 -0.123200
v -0.088732 0.346692 -0.123200
vn -0.0000 -0.0000 1.0000
vn 1.0000 -0.0000 -0.0000
vn -0.0000 -0.0000 -1.0000
vn -1.0000 -0.0000 -0.0000
vn -0.0000 -1.0000 -0.0000
vn -0.0000 1.0000 -0.0000
vt 0.375000 0.000000
vt 0.625000 0.000000
vt 0.625000 0.250000
vt 0.375000 0.250000
vt 0.625000 0.500000
vt 0.375000 0.500000
vt 0.625000 0.750000
vt 0.375000 0.750000
vt 0.625000 1.000000
vt 0.375000 1.000000
vt 0.125000 0.500000
vt 0.125000 0.750000
vt 0.875000 0.500000
vt 0.875000 0.750000
s 0
usemtl Material.007
f 49/85/37 51/88/37 52/87/37 50/86/37
f 51/88/38 55/90/38 56/89/38 52/87/38
f 55/90/39 53/92/39 54/91/39 56/89/39
f 53/92/40 49/94/40 50/93/40 54/91/40
f 51/95/41 49/96/41 53/92/41 55/90/41
f 56/89/42 54/91/42 50/98/42 52/97/42
o Window.007
v -0.128222 0.258973 0.120802
v -0.128222 0.347150 0.120802
v -0.088732 0.258973 0.120802
v -0.088732 0.347150 0.120802
v -0.128222 0.258973 0.034379
v -0.128222 0.347150 0.034379
v -0.088732 0.258973 0.034379
v -0.088732 0.347150 0.034379
vn -0.0000 -0.0000 1.0000
vn 1.0000 -0.0000 -0.0000
vn -0.0000 -0.0000 -1.0000
vn -1.0000 -0.0000 -0.0000
vn -0.0000 -1.0000 -0.0000
vn -0.0000 1.0000 -0.0000
vt 0.375000 0.000000
vt 0.625000 0.000000
vt 0.625000 0.250000
vt 0.375000 0.250000
vt 0.625000 0.500000
vt 0.375000 0.500000
vt 0.625000 0.750000
vt 0.375000 0.750000
vt 0.625000 1.000000
vt 0.375000 1.000000
vt 0.125000 0.500000
vt 0.125000 0.750000
vt 0.875000 0.500000
vt 0.875000 0.750000
s 0
usemtl Material.007
f 57/99/43 59/102/43 60/101/43 58/100/43
f 59/102/44 63/104/44 64/103/44 60/101/44
f 63/104/45 61/106/45 62/105/45 64/103/45
f 61/106/46 57/108/46 58/107/46 62/105/46
f 59/109/47 57/110/47 61/106/47 63/104/47
f 64/103/48 62/105/48 58/112/48 60/111/48
